<?xml version="1.0" ?><svg enable-background="new -203.672 93.439 476.451 377.034" id="Layer_1" version="1.1" viewBox="-203.672 93.439 476.451 377.034" xml:space="preserve" xmlns="http://www.w3.org/2000/svg" xmlns:xlink="http://www.w3.org/1999/xlink"><g><g id="_x32_3-apple-pay_x2C__Credit_card"><g><g><g><path d="M26,216.842c0.5,0,1.5,0.329,1,0.329c-6.999,0-14.005,0.195-21.004,0.57c-7.001,0.375-14.025,0.727-21.026,0.227       c1,6,0.368,11.016,0.368,17.016c0.601,6.204,0.589,12.424,0.701,18.628c0.112,6.214,0.111,12.431,0.039,18.646       s-0.456,12.43-0.406,18.644c0.049,6.209,0.643,12.398,1.119,18.607c0.473,6.158,0.914,12.486,2.105,18.645       c5-2,11.225-1.075,16.225-2.075c-0.501-6.014,0.211-12.344,0.46-18.607c0.249-6.236,0.009-12.413-1.488-18.399       c5.999,0,11.667,0.218,17.415,0.593c5.751,0.375,11.466,0.623,17.468,0.123c8-1,14.216-5.68,18.216-12.68       c3.027-5.718,4.879-12.209,5.415-18.676c0.54-6.51-0.026-13.275-2.476-19.306c-2.352-5.789-6.717-10.742-12.242-14.967       c-2-1-2.983-1.028-4.983-3.028c-5-3-10.888-3.23-16.888-4.23C25.942,216.884,26,216.842,26,216.842z M21,274.158       c-4,0-7,0.013-11,0.013c-3,0-4.877-0.223-7.877-0.223c0-7.043,0.427-14.028,1.312-21.071       c0.874-6.957,1.861-14.182,3.352-21.139c6.432,0.495,13.567-0.509,20.13-0.534c6.702-0.026,13.109,1.172,18.162,6.729       c4,5,6.741,12.999,4.741,18.999c-1,2-2.631,5.169-3.631,7.169c-2.499,4.499-6.51,7.727-10.884,9.602       c-4.375,1.876-9.254,2.162-14.255,0.161C20.976,273.837,21,274.158,21,274.158z"/></g><g><path d="M101.991,247.043c-5-1-10.028,0.883-15.028,2.883c-1,1-2.762,2.343-4.762,3.343c-2,2-4.604,3.501-6.604,6.501       c-2,4-1.413,8.045-3.413,12.045c3-3,6.815-2.021,10.815-2.021c1,0,1.109,1.097,2.109,1.097c0,1-0.767,1.223-1.767,1.223       c3-6,7.618-11.411,13.618-12.411c9-1,16.687,2.613,22.687,9.613c3,3,0.297,6.672,0.297,9.672c-1,2-3.929,2.827-5.929,2.827       c-5.561-0.654-11.983-0.728-18.311-0.503c-6.36,0.227-12.803,0.6-18.023,3.061c-5.464,2.576-9.221,7.228-11.285,13.766       c-3,8-1.166,15.58,5.834,21.58c4.01,3.008,7.71,5.601,11.973,6.724c4.24,1.117,8.802,0.981,13.788,0.482       c8-1,12.901-5.996,15.901-12.996c0.393-0.589,0.4,0.645,1.107,0.645c0-1,0.903-0.622,1.903-0.622       c-3,4-0.959,10.138,2.041,12.138c5,3,11.918,1.682,17.918,1.682c-1-3-1.773-5.786-1.773-9.786c-2-7-0.876-12.984-0.876-19.984       c0-8,2.088-15.033,1.088-23.033c0-1,2.836-0.916,4.836,0.084c-0.504-5.04-3.093-9.988-6.513-14.132       c-3.366-4.079-7.574-7.786-12.535-9.274c-1,0-1.1-1.567-2.1-1.567c-6-1-10.988-2.939-16.988-2.939       C101.979,247.138,101.991,247.043,101.991,247.043z M115.039,297.98c3,6-0.079,11.947-5.079,14.947       c-6,3-12.141,6.355-19.141,2.355c-4-3-6.389-7.455-11.389-10.455c1-7,5.503-11.081,12.503-13.081       c4.508-1.002,9.111-0.198,13.62,0.428c4.491,0.623,8.984,1.171,13.477-0.326c-2,2-0.028,5.79-4.028,5.79       C114.979,297.639,115.039,297.98,115.039,297.98z"/></g><g><path d="M-96.052,236.363c7,1,15.374-0.122,20.374-6.122c4-6,8.656-12.229,7.656-19.229c-3,0-5.903-0.837-7.903,0.163       c-5,2-9.832,5.137-15.832,6.137c-3,6-4.333,11.687-4.333,18.687C-96.092,236.183-96.052,236.363-96.052,236.363z"/></g><g><path d="M-41.977,298.16c-7,1-14.37-1.92-18.37-7.92c-5-7-0.604-15.237,0.396-23.237c0-9,8.391-14.783,17.391-16.783       c-6-4-12.381-9.454-20.381-11.454c-4-1-7.133-2.1-11.133-1.1c-5,1-8.977,5.977-13.977,6.977c-2,0-2.985,0.538-4.985,0.538       c-3-1-4.945-4.277-8.945-5.277c-1,0-1.082-1.588-2.082-1.588c-6.395-1.476-11.914-0.444-16.856,2.213       c-5.106,2.745-9.712,6.753-13.269,11.326c-3.303,4.294-5.447,9.251-6.676,14.313c-1.245,5.126-1.402,10.514-0.743,15.758       c0.662,5.249,2.261,10.384,4.607,15.074c2.561,5.122,5.128,9.717,7.958,14.327c2.695,4.39,5.408,8.946,8.822,13.824       c2,3,8.264,2.98,12.264,4.98c2-4,5.972-7.302,9.972-7.302c7,1,13.028,2.06,19.028,4.06c4,2,8.869,0.936,12.869-1.064       c6-3,9.971-7.956,13.971-12.956c5-3,6.898-10.006,9.898-15.006C-42.175,297.795-41.977,298.16-41.977,298.16z"/></g><g><path d="M215.999,249.003c-6-1-13.324-5.328-17.324-0.328c-2,1-1.703,4.318-2.703,7.318c0,1,0.256,3.083-0.744,5.083       c-1,4-1.855,7.992-1.855,11.992c-2,7-5.551,13.887-7.551,20.887c-1,5-5.063,8.941-7.063,13.941c-1,2-2.711,4.104-4.711,4.104       c2,1,3.63-1.161,4.63,0.839c-2,0-3.015-0.176-5.015,0.824c3-2,2.141-4.646,2.141-7.646c-1-9-2.576-17.082-4.576-25.082       c-2-6-4.636-10.824-5.636-16.824c-2-5-6.473-12.29-1.473-16.29c-8,2-16.322,0.001-24.322,1.001       c2.984,4.775,5.932,9.849,8.361,14.894c2.434,5.055,4.663,10.215,6.699,15.445c2.036,5.23,3.427,10.693,5.223,16.004       c1.803,5.33,3.44,10.698,5.161,16.013c1.739,5.372,4.05,10.565,5.87,15.823c-2,3-4.713,5.264-7.713,6.264       c1,2,1.33,3.633,0.33,5.633c-2,6-8.805,1.873-13.805,2.873c-1,1-1.787,1.229-2.787,1.229c1,3-1.26,7.041-0.26,10.041       s3.219,5.149,6.219,4.149c0.632-0.316,0.234-1.445,0.928-1.307c9,3,16.916-0.938,22.916-6.938c2-3,3.69-7.002,3.69-11.002       c1.481-5.926,4.379-11.169,6.721-16.48c2.401-5.444,4.775-10.848,6.8-16.416c1.512-5.543,3.197-11.077,5.593-16.368       c2.358-5.209,5.665-10.106,7.649-15.563c2-8,5.611-16.115,8.611-24.115C216.005,249,215.999,249.003,215.999,249.003z"/></g><path d="M272.438,190.38c-0.111-2.532-0.218-4.924-0.276-7.343l-0.009-0.359c-0.149-6.077-0.304-12.36-0.679-18.658      l-0.198-3.417c-0.292-5.095-0.593-10.362-1.152-15.676c-0.013-0.123-0.028-0.245-0.046-0.367      c-1.176-8.229-5.299-14.218-8.938-19.502c-0.592-0.86-1.192-1.732-1.79-2.628c-0.075-0.113-0.153-0.225-0.232-0.334      c-4.815-6.621-10.71-11.753-17.522-15.254c-6.563-3.371-14.082-5.491-21.745-6.13c-0.166-0.014-0.332-0.023-0.498-0.029      c-3.799-0.125-7.489,0.012-11.058,0.145c-2.529,0.095-4.944,0.187-7.279,0.181c-2.529-0.003-5.057-0.079-7.732-0.158      c-3.383-0.101-6.879-0.206-10.429-0.154c-3.187,0.047-6.33,0.211-9.37,0.37c-2.988,0.156-5.811,0.304-8.622,0.345      c-3.702,0.055-7.526,0.02-11.227-0.014c-2.208-0.02-4.415-0.04-6.623-0.042c-6.633-0.009-12.417-0.098-17.695-0.274      c-2.923-0.093-5.836-0.28-8.921-0.477c-2.808-0.18-5.71-0.366-8.633-0.476c-3.026-0.115-6.019-0.122-8.912-0.129      c-3.013-0.008-5.857-0.015-8.685-0.134c-2.749-0.116-5.5-0.207-8.25-0.298c-3.115-0.104-6.23-0.206-9.343-0.347      c-2.724-0.123-5.477-0.377-8.393-0.646c-2.972-0.274-6.044-0.558-9.188-0.704c-3.022-0.141-6.045-0.276-9.068-0.412      c-2.85-0.128-5.7-0.256-8.549-0.388c-3.099-0.144-6.196-0.218-9.19-0.29c-2.917-0.069-5.672-0.135-8.456-0.261      c-2.236-0.1-4.471-0.204-6.707-0.308c-3.647-0.17-7.293-0.339-10.939-0.492c-2.687-0.112-5.356-0.293-8.182-0.485      c-3.079-0.208-6.263-0.424-9.473-0.544c-2.423-0.09-4.847-0.196-7.27-0.302c-3.472-0.152-6.945-0.304-10.415-0.412      c-3.309-0.104-6.553-0.046-9.691,0.009c-2.791,0.049-5.427,0.096-8.031,0.034c-2.542-0.061-5.083-0.16-7.625-0.258      c-3.289-0.128-6.69-0.26-10.098-0.31c-3.362-0.046-6.674,0.042-9.878,0.13c-2.724,0.075-5.291,0.145-7.866,0.135      c-1.692-0.006-3.384-0.017-5.076-0.028c-4.144-0.026-8.427-0.054-12.678-0.019c-3.603,0.029-7.198,0.151-10.676,0.269      c-2.361,0.081-4.722,0.161-7.084,0.212c-2.45,0.052-5.002-0.068-7.704-0.195c-3.245-0.153-6.601-0.313-10.1-0.183      c-3.517,0.128-6.852,0.531-10.077,0.921c-2.659,0.321-5.171,0.625-7.611,0.754c-0.794,0.042-1.58,0.179-2.341,0.408      c-6.385,1.916-14.628,4.868-21.76,10.744c-6.502,5.358-10.872,12.128-14.791,18.604c-4.197,6.938-7.244,14.135-9.058,21.39      c-0.303,1.211-0.376,2.468-0.216,3.707c0.473,3.659,0.62,7.426,0.775,11.415c0.082,2.098,0.167,4.267,0.303,6.459      c0.401,6.446,0.541,12.781,0.625,18.128c0.039,2.443,0.117,4.885,0.196,7.328c0.124,3.816,0.24,7.421,0.203,11.029      c-0.032,3.143,0.036,6.259,0.102,9.273c0.07,3.221,0.137,6.264,0.089,9.301c-0.04,2.603-0.268,5.295-0.509,8.146      c-0.284,3.352-0.577,6.816-0.586,10.433c-0.077,2.214-0.158,4.425-0.239,6.635c-0.129,3.509-0.257,7.014-0.368,10.521      l-0.141,4.46c-0.136,4.293-0.272,8.582-0.394,12.866c-0.108,3.805-0.204,7.609-0.298,11.411l-0.149,5.915      c-0.08,3.079-0.125,6.158-0.17,9.236c-0.04,2.696-0.079,5.393-0.143,8.089c-0.076,3.238,0.059,6.364,0.189,9.387      c0.12,2.782,0.234,5.409,0.179,7.947c-0.055,2.522-0.292,5.137-0.542,7.905c-0.273,3.02-0.557,6.142-0.622,9.395      c-0.063,3.126,0.014,6.194,0.089,9.161c0.071,2.837,0.138,5.517,0.088,8.162c-0.061,3.184-0.112,6.369-0.164,9.557      c-0.042,2.584-0.083,5.168-0.13,7.753c-0.05,2.806-0.124,5.612-0.197,8.42c-0.078,2.962-0.155,5.924-0.207,8.889      c-0.053,3.009-0.031,5.995-0.01,8.884c0.021,2.889,0.041,5.616-0.007,8.378c-0.017,0.962,0.106,1.922,0.363,2.85      c1.881,6.772,4.477,13.255,7.715,19.267c3.86,7.168,8.364,12.856,13.771,17.391c4.843,4.062,11.586,8.96,20.815,10.806      c0.646,0.129,1.302,0.194,1.961,0.194c3.217,0,6.35-0.179,9.379-0.353c2.798-0.16,5.44-0.312,8.021-0.319      c2.524,0.006,5.159,0.164,7.942,0.349c3.024,0.2,6.166,0.387,9.408,0.392c3.025-0.015,6.025-0.118,8.926-0.219      c2.907-0.101,5.652-0.195,8.399-0.207c3.038-0.013,6.031-0.137,8.926-0.257c2.909-0.121,5.657-0.234,8.385-0.24      c2.583,0.008,5.244,0.184,8.073,0.384c2.965,0.21,6.032,0.426,9.219,0.434c2.532,0.006,5.065-0.01,7.598-0.025      c3.183-0.02,6.474-0.041,9.672-0.013c2.854,0.024,5.68-0.031,8.414-0.085c3.063-0.061,5.957-0.118,8.844-0.068      c2.773,0.045,5.529,0.021,8.195-0.002c3.132-0.027,6.089-0.053,9.046,0.025c3.481,0.093,7.07,0.257,10.54,0.416      c2.222,0.102,4.444,0.204,6.635,0.288c2.793,0.116,5.591,0.339,8.554,0.575c3.029,0.241,6.162,0.49,9.344,0.621      c3.246,0.134,6.437,0.12,9.52,0.109c2.93-0.014,5.698-0.023,8.427,0.084c2.767,0.109,5.524,0.305,8.444,0.512      c3.077,0.218,6.261,0.442,9.479,0.561c3.249,0.119,6.474,0.136,9.592,0.152c2.896,0.015,5.631,0.029,8.375,0.119      c2.699,0.087,5.414,0.283,8.289,0.491c3.129,0.226,6.364,0.459,9.663,0.55c3.327,0.091,6.646,0.096,9.855,0.101      c2.682,0.004,5.455,0.008,8.131,0.064c3.352,0.068,6.647-0.003,9.835-0.074c2.833-0.063,5.506-0.125,8.171-0.087      c2.595,0.035,5.252,0.222,8.065,0.419c3.202,0.225,6.514,0.457,9.938,0.473c2.101,0.01,4.285,0.015,6.608,0.015      c3.44,0,7.188-0.011,11.418-0.032c3.416-0.019,6.777-0.187,10.027-0.349c2.771-0.138,5.388-0.269,8.001-0.311      c4.235-0.069,8.506-0.203,12.636-0.332c1.798-0.056,3.597-0.112,5.398-0.163c2.522-0.072,5.03-0.088,7.685-0.105      c2.862-0.019,5.808-0.038,8.784-0.133c10.923,1.34,20.233-1.87,27.124-4.824c0.04-0.018,0.081-0.035,0.121-0.053      c5.232-2.325,9.973-5.834,14.491-10.728c4.044-4.381,7.142-9.024,9.465-14.19c4.778-9.688,5.228-20.003,5.237-28.957      c0.205-3.569,0.33-7.133,0.45-10.582c0.097-2.737,0.191-5.472,0.327-8.202c0.179-3.575,0.262-7.143,0.342-10.592      c0.064-2.8,0.132-5.693,0.25-8.49c0.157-3.756,0.265-7.536,0.368-11.192c0.074-2.625,0.148-5.249,0.241-7.873      c0.101-2.862,0.319-5.736,0.55-8.778c0.253-3.323,0.514-6.76,0.617-10.258c0.079-2.634,0.17-5.267,0.26-7.9      c0.128-3.714,0.256-7.429,0.351-11.146c0.088-3.5-0.025-6.916-0.136-10.22c-0.103-3.078-0.199-5.984-0.136-8.835      c0.063-2.866,0.285-5.781,0.521-8.867c0.25-3.276,0.509-6.665,0.58-10.147c0.067-3.356,0.011-6.681-0.044-9.896      c-0.054-3.159-0.104-6.142-0.046-9.125c0.001-0.065,0.002-0.131,0.002-0.197c0-4.569,0.064-9.25,0.126-13.776l0.063-4.78      c0.036-2.96,0.15-5.903,0.271-9.018c0.122-3.143,0.248-6.393,0.286-9.657c0.028-2.311,0.072-4.623,0.117-6.937      c0.074-3.872,0.15-7.876,0.149-11.872C272.776,198.029,272.604,194.141,272.438,190.38z M252.632,213.444      c-0.045,2.361-0.09,4.72-0.118,7.081c-0.035,2.998-0.151,5.972-0.273,9.121c-0.12,3.108-0.245,6.322-0.284,9.55l-0.063,4.75      c-0.063,4.562-0.127,9.278-0.128,13.951c-0.063,3.316-0.007,6.592,0.047,9.761c0.055,3.171,0.105,6.167,0.045,9.148      c-0.06,2.923-0.286,5.891-0.525,9.033c-0.245,3.215-0.499,6.539-0.574,9.944c-0.076,3.406,0.035,6.73,0.142,9.945      c0.105,3.154,0.205,6.134,0.131,9.047c-0.093,3.657-0.219,7.312-0.345,10.966c-0.091,2.664-0.183,5.328-0.262,7.994      c-0.091,3.038-0.323,6.097-0.569,9.336c-0.235,3.107-0.48,6.321-0.596,9.588c-0.094,2.67-0.17,5.341-0.245,8.013      c-0.102,3.59-0.207,7.302-0.358,10.919c-0.126,2.982-0.195,5.974-0.263,8.865c-0.08,3.472-0.156,6.751-0.321,10.062      c-0.142,2.829-0.24,5.662-0.34,8.498c-0.12,3.427-0.244,6.971-0.445,10.401c-0.012,0.195-0.018,0.391-0.018,0.587      c0,7.112-0.249,14.555-3.229,20.514c-0.067,0.135-0.132,0.271-0.193,0.408c-1.431,3.218-3.385,6.146-5.975,8.951      c-2.652,2.872-5.152,4.778-7.862,5.993c-6.369,2.724-10.988,3.759-15.51,3.446c-0.94-0.243-1.919-0.35-2.916-0.309      c-3.164,0.132-6.323,0.152-9.668,0.174c-2.646,0.018-5.382,0.035-8.124,0.113c-1.818,0.052-3.636,0.108-5.453,0.165      c-4.057,0.127-8.252,0.258-12.339,0.324c-2.948,0.049-5.857,0.193-8.67,0.334c-3.172,0.158-6.167,0.308-9.136,0.323      c-7.021,0.036-12.686,0.042-17.83,0.018c-2.77-0.013-5.616-0.212-8.631-0.424c-2.967-0.208-6.035-0.424-9.197-0.466      c-0.642-0.009-1.281-0.013-1.919-0.013c-2.363,0-4.694,0.052-6.965,0.103c-3.111,0.069-6.051,0.137-8.97,0.073      c-2.871-0.06-5.743-0.064-8.521-0.068c-3.224-0.005-6.27-0.009-9.338-0.093c-2.851-0.078-5.726-0.286-8.77-0.506      c-2.942-0.213-5.984-0.432-9.079-0.533c-3.017-0.098-6.019-0.113-8.921-0.129c-3.101-0.016-6.029-0.031-8.964-0.139      c-2.878-0.105-5.754-0.31-8.8-0.524c-2.943-0.209-5.987-0.424-9.069-0.546c-3.165-0.124-6.28-0.113-9.292-0.1      c-2.996,0.01-5.825,0.023-8.62-0.092c-2.797-0.116-5.606-0.339-8.579-0.576c-3.018-0.24-6.137-0.488-9.339-0.621      c-2.174-0.084-4.347-0.184-6.521-0.283c-3.564-0.164-7.25-0.333-10.923-0.43c-3.309-0.089-6.586-0.061-9.753-0.032      c-2.659,0.023-5.169,0.046-7.689,0.003c-3.25-0.053-6.461,0.008-9.567,0.07c-2.716,0.054-5.282,0.104-7.851,0.081      c-3.348-0.026-6.712-0.007-9.967,0.013c-2.476,0.016-4.952,0.033-7.426,0.025c-2.505-0.006-5.105-0.189-7.857-0.384      c-3.061-0.216-6.194-0.436-9.521-0.434c-3.124,0.007-6.2,0.134-9.175,0.258c-2.836,0.117-5.515,0.229-8.182,0.239      c-3.052,0.014-6.078,0.118-9.004,0.219c-2.882,0.1-5.605,0.193-8.33,0.207c-2.56-0.004-5.194-0.163-7.995-0.349      c-3.001-0.197-6.092-0.392-9.329-0.392c-3.117,0.01-6.156,0.184-9.095,0.352c-2.49,0.143-4.861,0.278-7.17,0.313      c-3.459-0.875-6.805-2.806-10.992-6.316c-3.429-2.876-6.377-6.653-9.014-11.55c-2.321-4.31-4.226-8.947-5.669-13.802      c0.024-2.492,0.006-4.957-0.011-7.354c-0.021-2.895-0.041-5.628,0.008-8.389c0.051-2.907,0.127-5.813,0.203-8.716      c0.075-2.862,0.149-5.723,0.201-8.582c0.047-2.599,0.088-5.195,0.13-7.792c0.051-3.168,0.102-6.335,0.162-9.501      c0.059-3.086-0.018-6.113-0.091-9.041c-0.072-2.872-0.14-5.584-0.086-8.259c0.051-2.549,0.291-5.192,0.544-7.991      c0.27-2.982,0.55-6.067,0.619-9.276c0.069-3.187-0.064-6.266-0.192-9.243c-0.122-2.819-0.237-5.482-0.176-8.053      c0.065-2.755,0.106-5.511,0.146-8.268c0.044-3.004,0.088-6.009,0.166-9.012l0.15-5.935c0.094-3.776,0.188-7.556,0.297-11.338      c0.122-4.264,0.256-8.532,0.392-12.804l0.141-4.466c0.109-3.47,0.236-6.94,0.364-10.415c0.083-2.279,0.167-4.56,0.246-6.843      c0.004-0.115,0.006-0.23,0.006-0.345c0-2.837,0.25-5.795,0.515-8.927c0.26-3.063,0.528-6.231,0.579-9.523      c0.053-3.409-0.021-6.784-0.092-10.046c-0.065-2.988-0.127-5.81-0.098-8.632c0.042-4.032-0.087-8.021-0.212-11.879      c-0.076-2.331-0.151-4.663-0.188-6.995c-0.087-5.577-0.234-12.203-0.661-19.057c-0.122-1.961-0.199-3.922-0.279-5.998      c-0.142-3.621-0.287-7.346-0.689-11.178c1.37-4.792,3.445-9.455,6.315-14.2c3.026-5,6.321-10.164,10.396-13.522      c3.23-2.662,7.489-4.744,13.714-6.693c2.651-0.185,5.201-0.493,7.678-0.792c2.947-0.355,5.729-0.692,8.411-0.79      c2.665-0.097,5.463,0.034,8.426,0.174c2.92,0.137,5.941,0.28,9.077,0.212c2.445-0.053,4.888-0.135,7.332-0.218      c3.505-0.119,6.815-0.231,10.158-0.259c4.109-0.033,8.319-0.006,12.392,0.019c1.708,0.011,3.415,0.021,5.123,0.028      c2.88,0.011,5.733-0.066,8.492-0.143c3.135-0.086,6.097-0.167,9.042-0.124c3.164,0.046,6.295,0.167,9.61,0.296      c2.643,0.103,5.285,0.205,7.929,0.268c3.019,0.072,5.987,0.02,8.856-0.031c3.031-0.054,5.892-0.104,8.715-0.016      c3.388,0.105,6.776,0.254,10.165,0.402c2.466,0.107,4.932,0.215,7.399,0.308c2.907,0.108,5.802,0.304,8.866,0.512      c2.829,0.192,5.753,0.39,8.699,0.513c3.615,0.151,7.23,0.319,10.845,0.488c2.248,0.104,4.496,0.209,6.741,0.31      c2.991,0.135,5.982,0.206,8.874,0.275c3.017,0.072,5.866,0.14,8.741,0.273c2.859,0.132,5.719,0.261,8.579,0.389      c3.012,0.135,6.024,0.271,9.037,0.411c2.687,0.125,5.402,0.375,8.277,0.641c3.017,0.278,6.136,0.566,9.328,0.71      c3.193,0.144,6.388,0.25,9.583,0.356c2.69,0.089,5.382,0.178,8.07,0.292c3.222,0.136,6.401,0.144,9.476,0.152      c2.846,0.007,5.533,0.014,8.208,0.115c2.661,0.1,5.309,0.27,8.11,0.449c3.105,0.199,6.317,0.404,9.546,0.508      c5.48,0.182,11.474,0.275,18.322,0.284c2.155,0.003,4.312,0.022,6.469,0.042c3.813,0.034,7.76,0.069,11.7,0.012      c3.188-0.047,6.331-0.211,9.372-0.37c2.987-0.156,5.81-0.304,8.62-0.345c3.106-0.047,6.229,0.048,9.537,0.146      c2.699,0.081,5.49,0.164,8.305,0.167c2.721,0.007,5.444-0.097,8.053-0.195c3.276-0.122,6.38-0.236,9.389-0.15      c4.993,0.447,9.838,1.817,14.024,3.968c3.951,2.031,7.442,5.084,10.377,9.077c0.612,0.916,1.228,1.81,1.835,2.692      c3.207,4.657,5.065,7.485,5.588,10.831c0.496,4.774,0.779,9.725,1.053,14.514l0.201,3.466      c0.354,5.947,0.505,12.053,0.649,17.958l0.009,0.358c0.063,2.615,0.179,5.219,0.291,7.737c0.164,3.708,0.318,7.211,0.32,10.699      C252.779,205.763,252.705,209.668,252.632,213.444z"/></g></g></g><g id="Layer_1_1_"/></g></svg>